<svg width="42" height="42" viewBox="0 0 42 42" fill="none" xmlns="http://www.w3.org/2000/svg">
<rect width="41.5" height="41.5" rx="8" fill="#D8D8D8"/>
<path d="M19.75 12.75C19.75 12.1977 20.1977 11.75 20.75 11.75C21.3023 11.75 21.75 12.1977 21.75 12.75V28.75C21.75 29.3023 21.3023 29.75 20.75 29.75C20.1977 29.75 19.75 29.3023 19.75 28.75V12.75Z" fill="#838383"/>
<path d="M11.75 20.75C11.75 20.1977 12.1977 19.75 12.75 19.75H28.75C29.3023 19.75 29.75 20.1977 29.75 20.75C29.75 21.3023 29.3023 21.75 28.75 21.75H12.75C12.1977 21.75 11.75 21.3023 11.75 20.75Z" fill="#838383"/>
</svg>
