<svg width="33" height="33" viewBox="0 0 33 33" fill="none" xmlns="http://www.w3.org/2000/svg">
<path d="M20.92 11.2837L13.9488 18.2712L11.2675 15.59C11.1218 15.4199 10.9426 15.2817 10.741 15.1842C10.5394 15.0867 10.3198 15.0318 10.096 15.0232C9.87218 15.0146 9.64901 15.0523 9.44048 15.134C9.23195 15.2157 9.04257 15.3396 8.8842 15.4979C8.72584 15.6563 8.60192 15.8457 8.52022 16.0542C8.43853 16.2628 8.40082 16.4859 8.40946 16.7097C8.4181 16.9335 8.47292 17.1531 8.57045 17.3547C8.66799 17.5563 8.80615 17.7356 8.97626 17.8812L12.795 21.7162C12.9468 21.8669 13.1269 21.986 13.3249 22.0669C13.5229 22.1477 13.7349 22.1887 13.9488 22.1875C14.3751 22.1857 14.7836 22.0165 15.0863 21.7162L23.2113 13.5912C23.3636 13.4402 23.4845 13.2605 23.567 13.0624C23.6495 12.8644 23.6919 12.652 23.6919 12.4375C23.6919 12.223 23.6495 12.0106 23.567 11.8126C23.4845 11.6145 23.3636 11.4348 23.2113 11.2837C22.9068 10.9811 22.4949 10.8112 22.0656 10.8112C21.6363 10.8112 21.2245 10.9811 20.92 11.2837ZM16.5 0.25C13.2861 0.25 10.1443 1.20305 7.47199 2.98862C4.79969 4.77419 2.71689 7.31209 1.48697 10.2814C0.257041 13.2507 -0.0647633 16.518 0.562247 19.6702C1.18926 22.8224 2.73692 25.7179 5.00952 27.9905C7.28213 30.2631 10.1776 31.8108 13.3298 32.4378C16.482 33.0648 19.7493 32.743 22.7186 31.513C25.6879 30.2831 28.2258 28.2003 30.0114 25.528C31.797 22.8557 32.75 19.7139 32.75 16.5C32.75 14.366 32.3297 12.2529 31.5131 10.2814C30.6964 8.30985 29.4994 6.51847 27.9905 5.00951C26.4815 3.50056 24.6902 2.3036 22.7186 1.48696C20.7471 0.670319 18.634 0.25 16.5 0.25ZM16.5 29.5C13.9289 29.5 11.4154 28.7376 9.27759 27.3091C7.13976 25.8806 5.47351 23.8503 4.48957 21.4749C3.50563 19.0994 3.24819 16.4856 3.7498 13.9638C4.25141 11.4421 5.48954 9.12569 7.30762 7.30761C9.1257 5.48953 11.4421 4.2514 13.9638 3.74979C16.4856 3.24818 19.0995 3.50563 21.4749 4.48957C23.8503 5.47351 25.8807 7.13975 27.3091 9.27759C28.7376 11.4154 29.5 13.9288 29.5 16.5C29.5 19.9478 28.1304 23.2544 25.6924 25.6924C23.2544 28.1304 19.9478 29.5 16.5 29.5Z" fill="#739306"/>
</svg>
