<svg width="33" height="33" viewBox="0 0 33 33" fill="none" xmlns="http://www.w3.org/2000/svg">
<path d="M22.5287 10.4712C22.3777 10.3189 22.1979 10.198 21.9999 10.1155C21.8019 10.033 21.5895 9.99055 21.375 9.99055C21.1605 9.99055 20.9481 10.033 20.75 10.1155C20.552 10.198 20.3723 10.3189 20.2212 10.4712L16.5 14.2087L12.7787 10.4712C12.4727 10.1652 12.0577 9.99333 11.625 9.99333C11.1922 9.99333 10.7772 10.1652 10.4712 10.4712C10.1652 10.7772 9.99333 11.1922 9.99333 11.625C9.99333 12.0577 10.1652 12.4727 10.4712 12.7787L14.2087 16.5L10.4712 20.2212C10.3189 20.3723 10.198 20.552 10.1155 20.75C10.033 20.9481 9.99055 21.1605 9.99055 21.375C9.99055 21.5895 10.033 21.8019 10.1155 21.9999C10.198 22.1979 10.3189 22.3777 10.4712 22.5287C10.6223 22.681 10.802 22.8019 11 22.8844C11.1981 22.9669 11.4105 23.0094 11.625 23.0094C11.8395 23.0094 12.0519 22.9669 12.2499 22.8844C12.4479 22.8019 12.6277 22.681 12.7787 22.5287L16.5 18.7912L20.2212 22.5287C20.3723 22.681 20.552 22.8019 20.75 22.8844C20.9481 22.9669 21.1605 23.0094 21.375 23.0094C21.5895 23.0094 21.8019 22.9669 21.9999 22.8844C22.1979 22.8019 22.3777 22.681 22.5287 22.5287C22.681 22.3777 22.8019 22.1979 22.8844 21.9999C22.9669 21.8019 23.0094 21.5895 23.0094 21.375C23.0094 21.1605 22.9669 20.9481 22.8844 20.75C22.8019 20.552 22.681 20.3723 22.5287 20.2212L18.7912 16.5L22.5287 12.7787C22.681 12.6277 22.8019 12.4479 22.8844 12.2499C22.9669 12.0519 23.0094 11.8395 23.0094 11.625C23.0094 11.4105 22.9669 11.1981 22.8844 11C22.8019 10.802 22.681 10.6223 22.5287 10.4712ZM27.9887 5.01123C26.4897 3.45919 24.6966 2.22122 22.714 1.36958C20.7315 0.517932 18.5992 0.069656 16.4415 0.0509065C14.2838 0.032157 12.144 0.44331 10.147 1.26037C8.14991 2.07744 6.33556 3.28405 4.80981 4.80981C3.28405 6.33556 2.07744 8.14991 1.26037 10.147C0.44331 12.144 0.032157 14.2838 0.0509065 16.4415C0.069656 18.5992 0.517932 20.7315 1.36958 22.714C2.22122 24.6966 3.45919 26.4897 5.01123 27.9887C6.51024 29.5408 8.30334 30.7787 10.2859 31.6304C12.2685 32.482 14.4008 32.9303 16.5585 32.949C18.7161 32.9678 20.8559 32.5566 22.853 31.7396C24.85 30.9225 26.6644 29.7159 28.1901 28.1901C29.7159 26.6644 30.9225 24.85 31.7396 22.853C32.5566 20.8559 32.9678 18.7161 32.949 16.5585C32.9303 14.4008 32.482 12.2685 31.6304 10.2859C30.7787 8.30334 29.5408 6.51024 27.9887 5.01123ZM25.6975 25.6975C23.572 27.8253 20.7746 29.1503 17.7818 29.4469C14.7889 29.7434 11.7859 28.9931 9.2842 27.3237C6.78254 25.6544 4.93706 23.1693 4.06218 20.2919C3.18731 17.4145 3.33716 14.3227 4.48621 11.5434C5.63526 8.76405 7.71242 6.46909 10.3638 5.04951C13.0152 3.62994 16.0767 3.17356 19.0269 3.75815C21.977 4.34273 24.6332 5.9321 26.5429 8.25548C28.4526 10.5789 29.4976 13.4925 29.5 16.5C29.5058 18.2083 29.1727 19.9008 28.52 21.4796C27.8673 23.0584 26.9079 24.492 25.6975 25.6975Z" fill="#FF4242"/>
</svg>
