<svg width="859" height="549" viewBox="0 0 859 549" fill="none" xmlns="http://www.w3.org/2000/svg">
<g clip-path="url(#clip0_3776_4525)">
<path d="M71.0247 548.012C71.0247 548.012 -33.2274 446.896 33.0976 327.931C99.4227 208.966 188.499 268.793 184.189 130.329C179.879 -8.13428 389.053 -20.0288 455.637 20.1177C522.217 60.2675 521.819 108.621 659.267 92.6213C796.718 76.6216 822.974 209.989 787.216 277.96C736.48 374.399 928.029 358.492 807.331 548.009H71.0247V548.012Z" fill="#DBFFF5"/>
<path opacity="0.3" d="M528.84 310.077C528.84 310.077 550.991 216.256 625.721 205.942C625.721 205.942 640.26 204.156 645.101 220.156C649.942 236.156 621.033 236.272 603.165 242.706C585.298 249.14 543.637 276.421 528.84 310.077Z" fill="#A6CE39"/>
<path opacity="0.3" d="M527.144 292.522C527.144 292.522 519.375 214.807 573.907 187.228C573.907 187.228 584.576 182.033 592.504 193.016C600.432 203.999 578.313 211.699 566.321 221.334C554.328 230.969 529.604 262.842 527.144 292.522Z" fill="#A6CE39"/>
<path d="M858.009 546.641H0.991362C0.443848 546.641 0 547.084 0 547.631V548.009C0 548.556 0.443848 549 0.991362 549H858.009C858.556 549 859 548.556 859 548.009V547.631C859 547.084 858.556 546.641 858.009 546.641Z" fill="#DBDBDB"/>
<path d="M123.946 477.452C112.408 451.181 154.257 428.612 154.257 428.612C154.257 428.612 209.402 446.447 217.319 441.556C225.237 436.666 173.149 417.108 173.149 417.108C186 404.541 235.28 393.028 235.28 393.028C235.28 393.028 268.519 438.866 274.991 432.177C281.46 425.487 243.486 393.09 243.486 393.09C260.233 386.278 285.495 391.871 285.495 391.871C321.87 404.813 303.362 450.824 303.362 450.824C303.362 450.824 315.226 466.462 338.789 476.382C338.789 476.382 343.527 477.903 350.125 481.657L346.448 484.615C345.354 483.873 344.254 483.187 343.153 482.568C343.146 482.561 343.139 482.558 343.133 482.558C343.116 482.548 343.1 482.541 343.083 482.531C342.374 482.167 341.359 481.65 340.116 481.027C340.116 481.027 340.116 481.027 340.112 481.027C340.112 481.027 340.109 481.027 340.106 481.027C337.211 479.735 335.142 478.721 333.72 477.936C333.717 477.936 333.71 477.933 333.707 477.929C324.781 473.741 312.686 468.655 307.931 469.371C307.931 469.371 307.878 468.473 307.361 467.052C307.543 467.791 307.732 468.563 307.931 469.371C312.5 487.915 282.839 515.491 262.408 526.011C241.977 536.53 245.638 525.434 248.612 509.816C251.589 494.197 273.074 480.388 276.383 472.539C279.692 464.69 268.615 468.42 257.65 478.728C246.686 489.035 250.257 505.419 232.82 522.416C215.386 539.413 172.39 515.498 172.39 515.498C188.686 509.047 206.272 483.042 203.55 477.827C200.828 472.611 166.571 500.923 160.089 503.918C153.607 506.913 135.474 503.729 123.939 477.459L123.946 477.452Z" fill="#CCF1BD"/>
<path d="M650.832 509.036C667.662 489.194 637.142 458.751 637.142 458.751C637.142 458.751 584.6 459.987 578.983 453.689C573.37 447.39 623.701 443.865 623.701 443.865C615.786 429.622 575.946 406.866 575.946 406.866C575.946 406.866 535.188 438.103 531.295 430.615C527.406 423.131 568.798 404.799 568.798 404.799C556.009 394.548 532.605 392.871 532.605 392.871C497.638 394.71 501.806 439.482 501.806 439.482C501.806 439.482 487.446 450.001 464.4 452.529C464.4 452.529 459.887 452.625 453.18 454.183L455.61 457.704C456.754 457.34 457.888 457.029 459.005 456.777C459.012 456.773 459.018 456.77 459.025 456.773C459.042 456.77 459.058 456.767 459.075 456.764C459.788 456.631 460.799 456.442 462.042 456.227C462.042 456.227 462.042 456.227 462.046 456.227C462.046 456.227 462.049 456.227 462.052 456.227C464.904 455.852 466.963 455.508 468.405 455.193C468.408 455.193 468.415 455.193 468.418 455.19C477.261 453.858 489.088 452.566 493.033 454.421C493.033 454.421 493.315 453.652 494.131 452.552C493.782 453.149 493.414 453.768 493.033 454.421C484.26 469.354 502.89 500.992 517.923 515.418C532.953 529.844 532.648 519.255 534.107 504.912C535.566 490.569 520.47 473.012 519.627 465.332C518.785 457.655 527.446 463.761 534.302 475.556C541.162 487.348 533.815 500.664 544.564 519.944C555.313 539.223 598.87 529.562 598.87 529.562C586.377 519.742 577.833 492.593 581.549 488.763C585.266 484.933 607.703 518.4 612.56 522.677C617.418 526.958 633.999 528.879 650.829 509.036H650.832Z" fill="#CCF1BD"/>
<path opacity="0.5" d="M232.116 124.624C249.463 95.5369 299.86 120.24 299.86 120.24C299.86 120.24 320.52 185.415 330.652 189.666C340.784 193.914 323.878 130.495 323.878 130.495C344.77 134.219 389.63 173.637 389.63 173.637C389.63 173.637 368.347 236.979 379.212 238.606C390.077 240.233 395.193 181.558 395.193 181.558C413.227 192.966 425.17 221.056 425.17 221.056C437.666 264.857 380.737 278.63 380.737 278.63C380.737 278.63 373.834 300.742 380.452 330.167C380.452 330.167 382.239 335.76 383.151 344.669L377.783 343.168C377.747 341.608 377.654 340.084 377.491 338.599C377.491 338.589 377.491 338.583 377.488 338.573C377.488 338.553 377.481 338.53 377.481 338.51C377.346 337.579 377.147 336.25 376.891 334.63C376.891 334.63 376.891 334.627 376.891 334.623C376.891 334.62 376.891 334.62 376.891 334.617C376.152 330.949 375.708 328.272 375.485 326.364C375.485 326.357 375.485 326.35 375.485 326.347C373.393 314.903 369.992 299.805 366.039 295.733C366.039 295.733 366.868 295.063 367.876 293.596C367.289 294.278 366.679 294.987 366.039 295.733C351.341 312.836 304.492 303.264 280.368 290.859C256.247 278.454 269.423 274.362 286.482 266.51C303.54 258.658 331.547 269.82 341.365 267.616C351.182 265.413 339.999 257.336 322.572 253.873C305.145 250.411 291.836 265.075 263.544 259.989C235.249 254.904 228.764 197.227 228.764 197.227C246.141 208.452 283.199 207.504 286.349 201.315C289.499 195.126 238.787 181.648 231.466 177.477C224.142 173.305 214.772 153.714 232.119 124.627L232.116 124.624Z" fill="#A6CE39"/>
<path d="M425.812 177.863C425.812 175.984 426.147 174.245 426.82 172.651C427.49 171.057 428.442 169.676 429.669 168.506C430.895 167.34 432.367 166.429 434.092 165.773C435.812 165.12 437.755 164.789 439.917 164.789C442.079 164.789 444.035 165.117 445.786 165.773C447.536 166.429 449.028 167.34 450.252 168.506C451.478 169.676 452.427 171.057 453.1 172.651C453.77 174.245 454.108 175.984 454.108 177.863C454.108 179.741 453.773 181.468 453.1 183.031C452.427 184.599 451.478 185.967 450.252 187.133C449.025 188.303 447.536 189.214 445.786 189.867C444.035 190.519 442.075 190.851 439.917 190.851C437.759 190.851 435.812 190.523 434.092 189.867C432.367 189.211 430.895 188.299 429.669 187.133C428.442 185.967 427.494 184.599 426.82 183.031C426.147 181.464 425.812 179.741 425.812 177.863ZM450.427 153.55H429.403L426.426 81.7656H453.405L450.427 153.55Z" fill="#F78248"/>
<path d="M362.332 107.69C362.332 106.249 362.591 104.914 363.105 103.691C363.618 102.468 364.348 101.408 365.29 100.51C366.231 99.6158 367.362 98.9167 368.685 98.4131C370.008 97.9128 371.496 97.6577 373.154 97.6577C374.812 97.6577 376.314 97.9095 377.66 98.4131C379.006 98.9167 380.147 99.6158 381.088 100.51C382.03 101.408 382.756 102.468 383.273 103.691C383.787 104.917 384.046 106.249 384.046 107.69C384.046 109.131 383.787 110.457 383.273 111.656C382.756 112.859 382.03 113.909 381.088 114.804C380.147 115.702 379.003 116.401 377.66 116.901C376.314 117.401 374.812 117.656 373.154 117.656C371.496 117.656 370.004 117.405 368.685 116.901C367.362 116.397 366.231 115.698 365.29 114.804C364.348 113.909 363.618 112.859 363.105 111.656C362.587 110.453 362.332 109.131 362.332 107.69ZM381.224 89.03H365.087L362.803 33.9375H383.509L381.224 89.03Z" fill="#AEC3FF"/>
<path d="M675.781 200.78C675.781 199.339 676.04 198.003 676.554 196.781C677.068 195.558 677.797 194.498 678.739 193.6C679.68 192.706 680.811 192.007 682.134 191.503C683.457 191.003 684.946 190.748 686.603 190.748C688.261 190.748 689.763 190.999 691.106 191.503C692.452 192.007 693.593 192.706 694.534 193.6C695.476 194.498 696.202 195.558 696.719 196.781C697.233 198.007 697.492 199.339 697.492 200.78C697.492 202.221 697.233 203.547 696.719 204.746C696.202 205.949 695.476 206.999 694.534 207.894C693.593 208.791 692.449 209.49 691.106 209.991C689.763 210.494 688.258 210.746 686.603 210.746C684.949 210.746 683.454 210.494 682.134 209.991C680.811 209.487 679.68 208.788 678.739 207.894C677.797 206.999 677.068 205.949 676.554 204.746C676.037 203.543 675.781 202.221 675.781 200.78ZM694.673 182.12H678.537L676.252 127.027H696.958L694.673 182.12Z" fill="#AEC3FF"/>
<path d="M640.286 340.983C636.914 347.235 632.714 353.547 628.407 358.685C623.898 364.069 619.282 368.158 615.386 369.543L615.357 369.553C615.154 369.622 614.952 369.689 614.753 369.742C614.743 369.748 614.733 369.748 614.723 369.748C613.931 369.974 613.178 370.076 612.459 370.043C599.674 369.47 586.199 342.066 586.199 342.066C586.199 342.066 586.551 338.816 589.037 336.523C591.206 334.522 592.877 333.999 592.877 333.999C592.877 333.999 606.646 348.126 610.008 349.143C612.124 349.779 614.906 339.913 618.891 327.524C622.88 315.133 636.881 312.078 636.881 312.078C636.881 312.078 651.052 321.04 640.29 340.986L640.286 340.983Z" fill="#CCF1BD"/>
<path d="M628.406 358.682C623.896 364.066 619.281 368.155 615.385 369.54L615.355 369.55L614.752 369.739L614.719 369.749C614.858 369.652 619.029 367.492 619.682 363.48C620.352 359.381 616.012 356.028 626.917 349.69C633.269 345.996 628.406 358.679 628.406 358.679V358.682Z" fill="#94B0ED"/>
<path d="M618.426 546.64H648.389C650.534 545.186 647.809 530.962 647.809 530.962C647.809 530.962 639.632 527.861 638.22 534.166C636.804 540.467 627.802 542.472 623.041 543.241C619.782 543.771 618.751 545.56 618.426 546.64Z" fill="#24406D"/>
<path d="M664.121 399.209C664.121 399.209 663.176 416.676 661.996 436.917C661.143 451.429 660.175 467.369 659.346 479.307C659.237 480.89 659.124 482.405 659.021 483.836C658.992 484.28 658.958 484.72 658.925 485.161C656.78 511.929 649.605 535.38 649.605 535.38C641.18 537.156 637.377 533.909 637.377 533.909C637.377 533.909 631.572 465.928 629.423 438.511C627.842 418.326 626.492 388.941 626.492 388.941L664.124 399.209H664.121Z" fill="#FF9E55"/>
<path d="M661.995 436.918C661.143 451.43 660.175 467.37 659.346 479.308C653.839 466.326 642.586 415.727 642.586 415.727L661.995 436.918Z" fill="#ED7D2B"/>
<path d="M662.867 546.64H692.83C694.975 545.186 692.25 530.962 692.25 530.962C692.25 530.962 684.074 527.861 682.661 534.166C681.245 540.467 672.244 542.472 667.483 543.241C664.223 543.771 663.192 545.56 662.867 546.64Z" fill="#24406D"/>
<path d="M634.625 395.736C634.625 395.736 656.024 448.96 662.864 469.135C667.738 483.504 681.478 533.922 681.478 533.922C681.478 533.922 687.452 535.737 692.475 532.225C692.475 532.225 697.588 480.718 687.26 466.196C681.783 458.489 685.897 386.098 663.686 385.479C641.472 384.859 634.628 395.736 634.628 395.736H634.625Z" fill="#FF9E55"/>
<path d="M678.441 378.618C678.352 386.186 678.269 391.742 678.289 393.147C678.349 397.726 675.418 398.76 672.397 399.459C672.397 399.459 669.605 400.058 666.084 400.655C662.636 401.231 658.478 401.801 655.541 401.781C640.518 401.662 627.945 397.242 627.945 397.242C625.117 397.242 623.83 392.872 623.366 386.772C623.051 382.644 624.328 341.464 624.487 331.179C624.596 323.804 628.648 316.989 629.782 315.995C640.272 306.724 671.23 307.894 676.8 314.289C678.18 315.869 678.581 331.116 678.627 347.815C678.657 358.567 678.548 369.918 678.445 378.618H678.441Z" fill="#CCF1BD"/>
<path d="M659.853 310.616C655.901 314.897 642.629 314.261 643.02 310.527C643.073 310.066 643.159 307.333 643.203 306.909C643.236 306.567 643.269 306.236 643.295 305.921C643.385 305 643.458 304.188 643.518 303.483C643.693 301.435 643.753 300.325 643.753 300.325H643.766C644.147 300.219 652.682 297.797 656.926 296.793C658.351 296.455 659.296 296.28 659.28 296.402C657.977 305.931 661.147 309.215 659.85 310.619L659.853 310.616Z" fill="#FFB27D"/>
<path d="M657.383 299.603C657.383 299.603 653.818 303.221 643.523 303.482C643.699 301.435 643.759 300.325 643.759 300.325H643.772C644.153 300.219 652.688 297.797 656.932 296.793C657.678 297.101 656.69 299.092 657.383 299.606V299.603Z" fill="#ED975D"/>
<path d="M641.144 299.818C641.144 299.818 643.75 300.752 647.072 301.2C651.933 301.856 658.322 301.468 660.328 295.594C663.71 285.704 668.027 279.776 658.08 275.737C652.755 273.577 649.347 273.461 647.032 274.286C645.023 274.999 643.836 276.42 642.938 277.828C641.005 280.856 637.119 298.088 641.144 299.818Z" fill="#FFB27D"/>
<path d="M643.689 270.174C640.134 272.507 641.295 277.974 645.482 278.709C647.992 279.15 650.098 279.239 651.315 279.78C653.788 280.88 655.917 282.042 655.33 285.879C655.131 287.185 654.494 288.772 657.856 287.983C658.407 287.854 658.805 287.894 659.076 288.056C660.469 288.881 658.688 292.887 658.151 293.755C658.151 293.755 657.379 296.624 659.093 298.022C659.302 298.188 662.67 299.662 670.794 287.241C672.07 285.293 673.29 280.899 671.318 276.668C669.348 272.441 663.854 267.09 653.506 267.09C650.814 267.09 646.762 268.157 643.685 270.174H643.689Z" fill="#233862"/>
<path d="M678.442 378.615C676.93 385.636 677.314 385.709 674.997 383.867C665.547 376.362 668.309 372.43 670.408 365.926C672.507 359.422 665.136 349.25 670.408 344.913C675.56 340.676 678.498 347.507 678.627 347.812C678.657 358.564 678.548 369.915 678.445 378.615H678.442Z" fill="#94B0ED"/>
<path d="M678.21 377.711C678.21 377.711 674.649 383.532 672.315 383.327C669.981 383.121 666.828 382.25 665.011 383.986C663.191 385.722 660.26 390.195 661.079 391.388C661.898 392.581 665.193 391.524 667.561 390.218C669.928 388.913 673.655 390.861 675.644 389.38C677.63 387.899 682.388 382.012 682.388 382.012L678.214 377.714L678.21 377.711Z" fill="#FFB27D"/>
<path d="M676.799 314.285C676.799 314.285 706.358 342.08 702.518 360.568C700.768 368.993 695.344 376.1 680.878 387.607C680.878 387.607 674.034 382.882 672.532 379.046C672.532 379.046 685.662 360.568 685.155 357.42C684.535 353.57 675.573 343.912 672.357 342.411C669.14 340.91 669.436 317.509 676.799 314.285Z" fill="#CCF1BD"/>
<path d="M672.314 383.328C672.314 383.328 669.198 381.967 668.196 381.384C667.195 380.8 667.417 381.745 667.722 382.219C668.027 382.692 668.863 383.746 670.086 383.859C671.31 383.971 672.311 383.332 672.311 383.332L672.314 383.328Z" fill="#FFB27D"/>
<path d="M152.563 322.932C151.495 320.871 175.878 313.456 176.263 333.783C176.263 333.783 221.942 332.66 200.132 307.221C192.582 298.414 193.358 291.132 193.584 284.353C193.812 277.574 188.882 257.87 171.973 259.855C171.973 259.855 167.546 258.056 162.019 260.918C149.453 267.432 121.304 330.43 152.56 322.936L152.563 322.932Z" fill="#163560"/>
<path d="M227.238 341.589C227.238 341.589 230.212 337.067 232.606 336.977C235.003 336.888 239.439 335.645 239.084 336.533C238.73 337.421 235.978 337.507 235.712 338.041C235.447 338.574 239.794 339.369 241.037 339.459C242.281 339.548 245.208 339.459 245.119 340.078C245.029 340.698 239.84 343.272 236.177 342.918C232.516 342.563 227.987 343.981 227.987 343.981L227.234 341.586L227.238 341.589Z" fill="#FFB27D"/>
<path d="M184.238 343.052C184.238 343.052 185.853 346.249 188.787 349.923C192.322 354.347 197.769 359.452 204.609 360.463C207.875 360.943 211.071 360.241 214.009 358.939C214.016 358.939 214.019 358.939 214.019 358.939C222.324 355.254 228.571 346.779 228.571 346.779C230.037 342.787 227.639 340.083 227.639 340.083C227.639 340.083 210.866 343.854 209.268 343.055C207.67 342.257 197.849 320.482 196.078 316.857C192.318 309.147 186.35 306.938 186.35 306.938L184.238 343.055V343.052Z" fill="#C1E797"/>
<path d="M188.789 349.924C192.323 354.347 197.771 359.453 204.611 360.463C207.877 360.944 211.073 360.241 214.011 358.939C213.686 358.982 205.39 360.006 202.081 354.095C198.709 348.065 195.059 338.487 190.049 341.677C187.887 343.056 187.983 346.481 188.789 349.924Z" fill="#94B0ED"/>
<path d="M121.658 523.988C121.658 523.988 116.539 528.656 117.54 531.973C118.538 535.289 123.157 537.499 123.783 541.555C124.407 545.61 126.903 547.82 129.151 547.82H139.864C139.864 547.82 141.518 544.967 137.523 544.109C133.528 543.248 132.022 538.487 132.271 534.063C132.52 529.64 131.896 523.746 131.896 523.746L123.409 521.781L121.661 523.991L121.658 523.988Z" fill="#1D3356"/>
<path d="M164.98 525.976C164.98 525.976 163.139 545.749 165.384 546.856L194.14 546.796C194.14 546.796 194.14 543.48 189.522 542.741C184.903 542.005 176.79 539.302 175.414 533.282C174.041 527.262 164.976 525.973 164.976 525.973L164.98 525.976Z" fill="#1D3356"/>
<path d="M142.858 329.713C142.858 329.713 142.43 335.75 142.858 342.996C143.143 347.8 148.004 354.231 148.694 355.822C150.424 359.811 152.377 360.46 152.377 360.46L167.476 364.158L172.785 365.457L189.528 360.46C189.528 360.46 197.154 339.189 194.091 327.219C191.03 315.244 186.352 306.932 186.352 306.932C186.352 306.932 175.003 302.455 154.904 305.798L142.861 329.713H142.858Z" fill="#C1E797"/>
<path d="M147.277 344.959C147.562 349.763 148.003 354.233 148.693 355.826C150.424 359.815 152.377 360.465 152.377 360.465L167.476 364.162L174.034 362.237C174.034 362.237 152.141 358.921 154.568 340.102L147.277 344.959Z" fill="#F2CCAA"/>
<path d="M188.465 363.691C188.465 363.691 196.758 389.482 197.288 398.262C197.822 407.042 181.439 522.992 180.78 527.037C180.16 530.851 175.418 533.283 175.418 533.283C175.418 533.283 173.24 534.568 170.127 533.69C165.81 532.471 164.447 531.013 164.447 531.013C164.447 531.013 157.995 448.318 161.987 418.777C165.979 389.236 166.029 363.691 166.029 363.691H188.462H188.465Z" fill="#233862"/>
<path d="M153.337 362.922C153.337 362.922 140.691 379.879 139.511 391.343C138.33 402.807 137.661 443.069 135.151 454.245C132.637 465.42 123.41 486.923 123.41 521.778C123.41 521.778 124.368 523.776 127.333 524.84C128.281 525.181 129.547 525.509 130.781 525.794C133.224 526.354 135.731 525.161 136.845 522.918C143.085 510.364 162.959 469.876 163.98 461.471C164.703 455.524 170.976 416.159 184.666 393.059C187.951 387.513 182.65 365.46 182.65 365.46L153.343 362.922H153.337Z" fill="#2B478B"/>
<path d="M189.785 359.711C189.785 359.711 186.456 362.342 179.845 362.474C171.947 362.633 152.376 360.463 152.376 360.463C152.376 360.463 151.507 362.892 151.54 365.453C151.54 365.453 175.442 371.476 189.291 366.334C189.291 366.334 191.078 362.974 189.782 359.711H189.785Z" fill="#233862"/>
<path d="M178.137 365.2C178.137 362.954 179.755 361.125 181.741 361.125C183.727 361.125 185.345 362.954 185.345 365.2C185.345 367.447 183.727 369.276 181.741 369.276C179.755 369.276 178.137 367.447 178.137 365.2ZM179.33 365.2C179.33 366.791 180.411 368.083 181.741 368.083C183.07 368.083 184.151 366.791 184.151 365.2C184.151 363.61 183.07 362.318 181.741 362.318C180.411 362.318 179.33 363.61 179.33 365.2Z" fill="white"/>
<path d="M129.187 366.589L148.596 383.477C149.999 384.696 152.124 384.55 153.348 383.149L178.115 354.728C179.335 353.326 179.189 351.199 177.787 349.98L158.377 333.092C156.975 331.873 154.85 332.019 153.626 333.42L128.859 361.841C127.639 363.243 127.784 365.367 129.187 366.589Z" fill="#F78248"/>
<path d="M157.9 364.453C158.175 364.526 168.212 365.706 168.212 367.776C168.212 370.172 165.271 373.382 162.499 373.23C161.375 373.167 156.199 368.412 156.199 368.412L157.9 364.453Z" fill="#FFB27D"/>
<path d="M163.055 304.704C164.196 301.937 164.862 297.723 164.845 292.508L165.605 292.657L178.35 295.178C178.35 295.178 178.061 299.187 178.051 302.964C178.051 302.994 178.051 303.027 178.051 303.057C178.035 306.337 180.27 309.627 175.004 310.929C173.376 311.33 160.658 310.515 163.058 304.704H163.055Z" fill="#FFB27D"/>
<path d="M178.347 295.178C178.347 295.178 178.055 299.187 178.048 302.964C170.916 302.762 167.147 296.261 165.602 292.656L178.347 295.178Z" fill="#E8945B"/>
<path d="M180.729 298.753C180.729 298.753 163.853 299.031 163.843 288.528C163.829 278.022 161.645 270.984 172.42 270.361C183.196 269.739 185.291 273.744 186.15 277.25C187.009 280.755 185.122 298.408 180.732 298.753H180.729Z" fill="#FFB27D"/>
<path d="M180.107 270.106C180.107 270.106 175.485 282.431 168.396 284.253C161.304 286.075 158.23 284.177 158.23 284.177C158.23 284.177 163.668 279.86 164.799 272.322C164.799 272.322 176.625 264.241 180.11 270.109L180.107 270.106Z" fill="#163560"/>
<path d="M178.957 271.108C178.957 271.108 182.382 272.387 183.794 274.885C185.174 277.327 186.347 280.56 186.076 284.53C186.076 284.53 189.557 276.154 185.645 271.416C181.497 266.393 178.957 271.111 178.957 271.111V271.108Z" fill="#163560"/>
<path d="M157.902 364.455C157.902 364.455 160.306 363.683 161.914 363.908C163.522 364.134 164.709 363.875 164.709 364.326C164.709 364.776 162.633 364.985 162.192 365.201C161.751 365.416 157.898 364.455 157.898 364.455H157.902Z" fill="#FFB27D"/>
<path d="M154.9 305.8C154.9 305.8 142.921 306.638 138.329 317.794C133.737 328.95 125.023 347.676 125.023 350.827C125.023 353.978 129.891 363.689 156.028 369.275C156.028 369.275 158.73 366.432 158.567 364.186C158.567 364.186 142.251 350.181 142.294 348.544C142.377 345.45 144.97 341.361 159.293 327.041C163.189 323.148 154.897 305.797 154.897 305.797L154.9 305.8Z" fill="#C1E797"/>
<path d="M489.681 210.75H360.23C357.1 210.75 354.097 211.992 351.882 214.206L260.345 305.678C258.13 307.891 256.887 310.889 256.887 314.017V443.376C256.887 446.503 258.13 449.505 260.345 451.715L351.882 543.187C354.097 545.4 357.097 546.643 360.23 546.643H489.681C492.811 546.643 495.815 545.4 498.026 543.187L589.563 451.715C591.778 449.502 593.021 446.503 593.021 443.376V314.017C593.021 310.889 591.778 307.887 589.563 305.678L498.026 214.206C495.811 211.992 492.811 210.75 489.681 210.75Z" fill="#A6CE39"/>
<path d="M480.575 529.829H369.336C364.804 529.829 360.547 528.066 357.341 524.866L278.685 446.263C275.482 443.062 273.715 438.805 273.715 434.275V323.116C273.715 318.587 275.479 314.333 278.685 311.129L357.341 232.529C360.547 229.328 364.804 227.562 369.336 227.562H480.575C485.107 227.562 489.368 229.325 492.57 232.529L571.226 311.129C574.429 314.33 576.196 318.587 576.196 323.116V434.275C576.196 438.805 574.432 443.059 571.226 446.263L492.57 524.863C489.368 528.063 485.107 529.829 480.575 529.829ZM369.336 239.089C367.888 239.089 366.522 239.652 365.497 240.68L286.841 319.28C285.817 320.303 285.25 321.665 285.25 323.116V434.275C285.25 435.723 285.813 437.085 286.841 438.112L365.497 516.715C366.522 517.739 367.884 518.302 369.336 518.302H480.575C482.027 518.302 483.39 517.739 484.414 516.715L563.07 438.115C564.094 437.092 564.658 435.73 564.658 434.279V323.12C564.658 321.672 564.094 320.31 563.07 319.283L484.414 240.683C483.39 239.659 482.023 239.093 480.575 239.093H369.336V239.089Z" fill="#FFE5D4"/>
<path d="M514.672 382.925L512.407 380.963C506.715 376.037 498.024 376.663 493.094 382.352L480.293 397.125C478.462 399.236 474.994 397.944 474.994 395.151C474.994 393.981 474.931 392.822 474.809 391.682V298.676C474.809 292.566 469.809 287.57 463.695 287.57H462.873C456.759 287.57 451.759 292.566 451.759 298.676V359.209C451.759 360.676 450.568 361.869 449.096 361.869C447.475 361.869 446.159 360.554 446.159 358.934V286.954C446.159 281.049 441.324 276.219 435.416 276.219H433.851C427.943 276.219 423.109 281.049 423.109 286.954V359.411C423.109 360.769 422.005 361.873 420.645 361.873C418.914 361.873 417.509 360.471 417.509 358.738V300.975C417.509 294.866 412.509 289.869 406.395 289.869H405.572C399.459 289.869 394.459 294.866 394.459 300.975V359.205C394.459 360.676 393.265 361.869 391.793 361.869C390.175 361.869 388.859 360.557 388.859 358.937V313.38C388.859 307.27 383.859 302.274 377.745 302.274H376.922C370.808 302.274 365.809 307.27 365.809 313.38V393.368C365.809 393.59 365.819 393.809 365.832 394.031C365.819 394.402 365.809 394.776 365.809 395.151V439.18C365.809 457.075 380.46 471.716 398.368 471.716H442.429C453.881 471.716 464.003 465.726 469.809 456.727C471.563 454.01 473.459 451.386 475.581 448.941L516.058 402.224C520.988 396.536 520.362 387.852 514.669 382.925H514.672Z" fill="white"/>
<g clip-path="url(#clip1_3776_4525)">
<path d="M442.013 423.228L425.773 406.955L441.925 390.771C443.242 389.45 443.242 387.31 441.925 385.99C440.607 384.67 438.471 384.67 437.153 385.99L421.001 402.174L404.85 385.99C403.532 384.67 401.397 384.67 400.079 385.99C398.761 387.31 398.761 389.451 400.079 390.771L416.23 406.955L399.988 423.228C398.671 424.549 398.671 426.689 399.988 428.009C400.647 428.669 401.511 428.999 402.375 428.999C403.238 428.999 404.102 428.669 404.761 428.009L421.001 411.736L437.242 428.009C437.9 428.669 438.764 428.999 439.628 428.999C440.492 428.999 441.355 428.669 442.014 428.009C443.33 426.689 443.33 424.549 442.013 423.228Z" fill="#FF1F1F"/>
</g>
</g>
<defs>
<clipPath id="clip0_3776_4525">
<rect width="859" height="549" fill="white"/>
</clipPath>
<clipPath id="clip1_3776_4525">
<rect width="44" height="44" fill="white" transform="translate(399 385)"/>
</clipPath>
</defs>
</svg>
