<svg width="295" height="291" viewBox="0 0 295 291" fill="none" xmlns="http://www.w3.org/2000/svg">
<path fill-rule="evenodd" clip-rule="evenodd" d="M196.61 8.71252C203.682 14.4878 209.647 21.4851 214.218 29.3678C221.419 42.0974 224.618 61.1828 223.817 70.7315C220.303 112.703 176.034 135.99 167.004 174.144C163.805 187.67 167.806 204.371 171.006 211.53C174.439 219.313 179.584 226.232 186.061 231.778C227.616 204.353 243.271 156.764 250.478 137.419C254.871 169.617 218.165 228.78 204.363 242.088C259.383 258.925 289.439 214.233 294.099 161.644C296.231 137.542 294.948 111.481 286.233 89.8229C275.197 62.3927 248.198 28.394 219.816 16.6441C210.216 12.6901 196.61 8.71252 196.61 8.71252Z" fill="#A6CE39"/>
<path fill-rule="evenodd" clip-rule="evenodd" d="M5.3248 174.251C6.83232 165.214 9.97003 156.522 14.5864 148.595C22.1174 135.951 37.2271 123.574 45.9874 119.494C84.5077 101.422 127.146 128.058 165.105 116.685C178.556 112.653 191.171 100.781 195.832 94.408C200.912 87.5134 204.378 79.5752 205.976 71.1748C161.077 48.9808 111.529 59.3503 90.9646 62.8602C116.953 42.8519 187.208 44.8889 205.797 50.1508C192.896 -5.99023 138.651 -9.54768 90.2544 12.8779C68.0791 23.1582 45.8979 37.382 31.3133 55.8285C12.814 79.1864 -3.36388 119.684 0.604518 150.193C1.97108 160.467 5.3248 174.251 5.3248 174.251Z" fill="#A6CE39"/>
<path fill-rule="evenodd" clip-rule="evenodd" d="M242.633 254.466C233.988 257.547 224.855 259.042 215.677 258.877C200.964 258.479 182.801 251.355 174.96 245.734C140.453 221.027 143.125 171.014 114.776 143.546C104.728 133.811 88.2244 128.611 80.3832 127.661C71.8855 126.582 63.2536 127.418 55.1223 130.107C57.4426 179.924 90.5327 217.964 103.556 234.14C73.4462 221.264 41.1831 159.2 36.7806 140.483C-6.10811 178.98 17.0585 227.865 60.1435 259.043C79.8894 273.326 103.092 285.697 126.306 289.413C155.714 294.12 199.019 288.534 223.803 270.262C232.186 264.077 242.633 254.466 242.633 254.466Z" fill="#A6CE39"/>
</svg>
