<svg width="371" height="433" viewBox="0 0 371 433" fill="none" xmlns="http://www.w3.org/2000/svg">
<g clip-path="url(#clip0_149_13096)">
<path fill-rule="evenodd" clip-rule="evenodd" d="M16.4154 64.2641L258.591 0.723681C270.309 -2.35078 282.444 4.66473 285.538 16.3155L370.269 335.229C373.366 346.873 366.306 358.929 354.579 362.006L112.405 425.533C100.679 428.605 88.5531 421.594 85.457 409.943L0.729594 91.0408C-2.36881 79.3901 4.69105 67.3408 16.4154 64.2641Z" fill="#A6CE39"/>
<path fill-rule="evenodd" clip-rule="evenodd" d="M257.602 113.354C260.287 115.546 262.551 118.201 264.286 121.192C267.019 126.022 268.234 133.263 267.929 136.887C266.595 152.812 249.792 161.648 246.364 176.125C245.15 181.257 246.669 187.594 247.883 190.31C249.186 193.263 251.139 195.889 253.598 197.993C269.372 187.587 275.314 169.53 278.049 162.19C279.717 174.407 265.784 196.855 260.545 201.905C281.429 208.293 292.838 191.336 294.607 171.382C295.416 162.237 294.929 152.348 291.621 144.13C287.432 133.723 277.184 120.822 266.411 116.364C262.767 114.864 257.602 113.354 257.602 113.354Z" fill="white"/>
<path fill-rule="evenodd" clip-rule="evenodd" d="M185.487 175.82C186.057 172.412 187.241 169.135 188.985 166.147C191.828 161.379 197.534 156.713 200.842 155.174C215.387 148.36 231.488 158.403 245.822 154.115C250.901 152.595 255.665 148.118 257.424 145.716C259.343 143.116 260.652 140.123 261.255 136.956C244.301 128.588 225.591 132.498 217.826 133.821C227.639 126.277 254.168 127.045 261.188 129.029C256.316 107.862 235.832 106.52 217.557 114.976C209.184 118.852 200.808 124.215 195.301 131.17C188.315 139.977 182.206 155.246 183.705 166.749C184.221 170.623 185.487 175.82 185.487 175.82Z" fill="white"/>
<path fill-rule="evenodd" clip-rule="evenodd" d="M275.1 206.524C271.825 207.687 268.366 208.25 264.89 208.188C259.317 208.038 252.437 205.351 249.467 203.23C236.398 193.911 237.41 175.045 226.672 164.684C222.866 161.012 216.615 159.05 213.645 158.692C210.427 158.285 207.157 158.6 204.077 159.615C204.956 178.406 217.49 192.755 222.422 198.857C211.018 194 198.798 170.589 197.13 163.529C180.886 178.05 189.66 196.49 205.979 208.251C213.458 213.638 222.246 218.305 231.039 219.707C242.178 221.482 258.58 219.375 267.968 212.483C271.143 210.15 275.1 206.524 275.1 206.524Z" fill="white"/>
<path fill-rule="evenodd" clip-rule="evenodd" d="M175.152 111.292C165.643 107.644 156.298 105.985 144.786 105.985C110.917 105.985 84.0547 125.88 84.0547 161.195C84.0457 196.172 107.747 218.092 145.455 218.092C156.799 218.092 166.31 216.572 177.32 212.924V156.885H137.613V170.32H161.472V202.319C155.131 204.144 151.783 204.641 146.456 204.641C119.259 204.641 101.075 187.233 101.075 161.368C101.075 136.499 119.259 119.422 145.788 119.422C156.465 119.422 165.143 121.577 174.152 126.552L175.152 111.292Z" fill="white"/>
<path fill-rule="evenodd" clip-rule="evenodd" d="M127.581 254.668H109.087V262.156H118.813V273.182C116.935 273.8 114.971 274.121 112.993 274.134C103.402 274.134 97.6493 267.055 97.6493 257.935C97.6493 248.134 104.295 242.621 113.745 242.621C117.881 242.627 121.968 243.51 125.733 245.212L126.351 237.182C122.355 235.956 118.197 235.335 114.016 235.339C99.2898 235.339 87.8516 242.621 87.8516 258.275C87.8516 274.134 97.7146 281.429 112.851 281.429C117.851 281.429 122.919 280.668 127.577 279.035L127.581 254.668ZM147.17 281.156V262.23C152.923 262.23 154.908 262.774 156.963 268.242L161.963 281.163H172.236L165.661 265.235C164.361 262.163 163.333 259.637 160.046 258.351C165.731 257.534 169.284 253.45 169.284 247.666C169.284 237.659 160.997 235.686 152.846 235.686H137.854V281.163L147.17 281.156ZM147.1 255.212V242.749H151.963C156.14 242.749 159.428 244.247 159.428 248.942C159.428 253.707 155.388 255.212 151.21 255.212H147.1ZM206.003 273.704H187.927V261.542H204.225V254.124H187.927V243.167H205.729V235.679H178.674V281.156H206.003V273.704ZM242.783 273.704H224.702V261.542H241.001V254.124H224.702V243.167H242.504V235.679H215.454V281.156H242.783V273.704ZM289.836 281.156V235.746H281.071V260.181C281.071 263.858 281.276 267.669 281.891 271.276C280.728 268.621 279.906 265.831 278.466 263.244L263.125 235.746H252.234V281.156H261.002V257.391C261.002 253.51 260.522 249.565 259.974 245.684C261.139 248.407 262.302 251.13 263.742 253.716L278.738 281.156H289.836Z" fill="white"/>
<path fill-rule="evenodd" clip-rule="evenodd" d="M99.091 320.416L94.0547 294.634H99.0572L102.225 314.18L105.606 294.643H109.614L113.339 314.572L116.1 294.643H121.057L116.343 320.416H110.615L107.62 304.124L104.853 320.416H99.091ZM128.933 310.066H133.043L130.974 299.255L128.933 310.066ZM121.99 320.416L127.849 294.634H134.334L140.229 320.416H135.017L133.735 313.936H128.173L126.925 320.416H121.99ZM147.431 305.53H150.209C151.613 305.53 152.584 305.25 153.139 304.697C153.693 304.144 153.956 303.129 153.956 301.696C153.956 300.415 153.657 299.52 153.055 299.009C152.453 298.499 151.376 298.237 149.808 298.237H147.431V305.53ZM142.762 320.416V294.634H151.424C154.042 294.634 155.927 295.161 157.077 296.215C158.227 297.267 158.804 298.993 158.804 301.38C158.804 303.049 158.493 304.37 157.877 305.335C157.581 305.805 157.181 306.203 156.708 306.498C156.235 306.793 155.701 306.978 155.146 307.039C157.44 307.636 158.636 309.562 158.734 312.816V313.148L158.871 316.565C158.887 317.357 159.011 318.143 159.241 318.902C159.433 319.472 159.756 319.99 160.183 320.416H154.452C154.304 319.916 154.202 319.403 154.148 318.885C154.08 318.296 154.04 317.467 154.015 316.399L153.947 313.712V313.024C153.947 311.526 153.625 310.499 152.988 309.946C152.35 309.392 151.043 309.106 149.082 309.106H147.431V320.425L142.762 320.416ZM162.677 320.416V294.634H176.006V298.92H167.479V304.878H175.415V308.965H167.479V316.063H176.211V320.416H162.677ZM179.762 320.416V294.634H184.564V304.746H191.182V294.634H195.984V320.416H191.182V308.73H184.564V320.416H179.762ZM204.811 307.525C204.811 311.765 205.06 314.433 205.559 315.53C206.058 316.627 206.979 317.178 208.324 317.183C209.647 317.183 210.557 316.645 211.046 315.564C211.535 314.482 211.776 311.811 211.776 307.525C211.776 303.239 211.528 300.547 211.033 299.464C210.537 298.38 209.631 297.825 208.297 297.825C206.963 297.825 206.044 298.373 205.552 299.464C205.061 300.554 204.811 303.239 204.811 307.525ZM199.878 307.525C199.878 304.793 200.004 302.599 200.261 300.971C200.518 299.343 200.924 298.107 201.476 297.278C202.123 296.207 203.06 295.338 204.18 294.77C205.232 294.267 206.608 294.016 208.308 294.016C210.009 294.016 211.383 294.267 212.43 294.77C213.547 295.342 214.482 296.21 215.134 297.278C215.681 298.129 216.085 299.365 216.337 301C216.589 302.634 216.716 304.807 216.716 307.525C216.716 310.243 216.589 312.411 216.33 314.046C216.071 315.68 215.675 316.919 215.134 317.772C214.482 318.839 213.546 319.707 212.43 320.28C211.378 320.781 210.004 321.033 208.308 321.034C206.612 321.036 205.236 320.784 204.18 320.28C203.06 319.711 202.123 318.843 201.476 317.772C200.924 316.941 200.52 315.714 200.261 314.079C200.002 312.445 199.872 310.257 199.872 307.525H199.878ZM220.648 294.634H225.486V312.01C225.486 313.994 225.729 315.338 226.216 316.041C226.703 316.744 227.571 317.098 228.821 317.104C230.058 317.104 230.914 316.751 231.392 316.036C231.87 315.322 232.095 313.956 232.095 311.941V294.634H236.863V312.429C236.863 314.159 236.765 315.423 236.57 316.222C236.39 316.982 236.053 317.696 235.581 318.32C234.868 319.239 233.912 319.943 232.821 320.353C231.515 320.83 230.132 321.058 228.742 321.025C225.773 321.025 223.682 320.385 222.468 319.104C221.255 317.823 220.645 315.595 220.639 312.42L220.648 294.634ZM240.766 311.358H245.602V313.016C245.602 314.599 245.802 315.68 246.199 316.251C246.595 316.822 247.287 317.113 248.263 317.113C249.288 317.113 250.066 316.856 250.598 316.341C251.129 315.826 251.397 315.073 251.397 314.068C251.417 313.366 251.223 312.675 250.841 312.084C250.471 311.535 249.667 310.821 248.43 309.952L245.951 308.21C243.818 306.737 242.461 305.522 241.879 304.565C241.298 303.608 241.009 302.402 241.012 300.946C241.012 298.781 241.658 297.084 242.95 295.854C244.241 294.624 246.022 294.011 248.292 294.016C250.696 294.016 252.538 294.669 253.818 295.975C255.098 297.281 255.737 299.155 255.737 301.598C255.737 301.844 255.737 302.032 255.737 302.164C255.737 302.296 255.719 302.415 255.708 302.518H251.125V301.833C251.125 300.437 250.895 299.439 250.435 298.839C249.985 298.239 249.216 297.943 248.164 297.943C247.829 297.924 247.493 297.974 247.179 298.09C246.864 298.206 246.576 298.384 246.334 298.615C245.883 299.063 245.658 299.69 245.658 300.496C245.658 301.575 246.651 302.773 248.637 304.09C248.656 304.098 248.673 304.11 248.689 304.124L251.352 305.915C253.25 307.166 254.536 308.344 255.21 309.451C255.886 310.57 256.224 311.977 256.224 313.705C256.224 316.047 255.548 317.855 254.196 319.126C252.844 320.398 250.918 321.035 248.416 321.036C245.811 321.036 243.872 320.365 242.598 319.021C241.324 317.678 240.686 315.634 240.683 312.89C240.683 312.604 240.706 312.125 240.752 311.455L240.766 311.358ZM260.145 320.416V294.634H273.474V298.92H264.947V304.878H272.884V308.965H264.947V316.063H273.677V320.416H260.145ZM276.741 311.358H281.577V313.016C281.577 314.599 281.778 315.68 282.174 316.251C282.571 316.822 283.263 317.113 284.241 317.113C285.264 317.113 286.043 316.856 286.575 316.341C287.107 315.826 287.375 315.073 287.375 314.068C287.395 313.366 287.2 312.674 286.816 312.084C286.447 311.535 285.642 310.821 284.407 309.952L281.929 308.21C279.794 306.737 278.437 305.522 277.857 304.565C277.277 303.608 276.988 302.402 276.989 300.946C276.989 298.781 277.635 297.084 278.927 295.854C280.219 294.624 282 294.011 284.27 294.016C286.673 294.016 288.515 294.669 289.795 295.975C291.075 297.281 291.716 299.155 291.717 301.598C291.717 301.844 291.717 302.032 291.717 302.164C291.717 302.296 291.702 302.415 291.688 302.518H287.105V301.833C287.105 300.437 286.875 299.439 286.415 298.839C285.964 298.239 285.196 297.943 284.144 297.943C283.809 297.924 283.474 297.974 283.159 298.09C282.845 298.205 282.558 298.384 282.316 298.615C281.866 299.063 281.64 299.69 281.64 300.496C281.64 301.575 282.633 302.773 284.619 304.09C284.638 304.099 284.655 304.11 284.671 304.124L287.332 305.915C289.23 307.166 290.516 308.344 291.192 309.451C291.868 310.57 292.204 311.977 292.204 313.705C292.204 316.047 291.528 317.855 290.176 319.126C288.824 320.398 286.898 321.035 284.398 321.036C281.793 321.036 279.849 320.365 278.578 319.021C277.307 317.678 276.662 315.638 276.662 312.89C276.662 312.604 276.686 312.125 276.732 311.455L276.741 311.358Z" fill="white"/>
</g>
<defs>
<clipPath id="clip0_149_13096">
<rect width="371" height="433" fill="white"/>
</clipPath>
</defs>
</svg>
