<svg width="138" height="138" viewBox="0 0 138 138" fill="none" xmlns="http://www.w3.org/2000/svg">
<path fill-rule="evenodd" clip-rule="evenodd" d="M69 23C43.608 23 23 43.608 23 69C23 94.392 43.608 115 69 115C94.392 115 115 94.392 115 69C115 43.608 94.392 23 69 23ZM69 36.8C76.636 36.8 82.8 42.964 82.8 50.6C82.8 58.236 76.636 64.4 69 64.4C61.364 64.4 55.2 58.236 55.2 50.6C55.2 42.964 61.364 36.8 69 36.8ZM69 102.12C57.5 102.12 47.334 96.232 41.4 87.308C41.538 78.154 59.8 73.14 69 73.14C78.154 73.14 96.462 78.154 96.6 87.308C90.666 96.232 80.5 102.12 69 102.12Z" fill="#C3CAD9"/>
</svg>
